<svg width="24" height="23" viewBox="0 0 24 23" fill="none" xmlns="http://www.w3.org/2000/svg">
<path d="M3.13043 0C1.32 0 0.00509511 1.08493 0.00509511 2.57711C0.00509511 4.0745 1.3513 5.2072 3.13043 5.2072C4.94087 5.2072 6.25577 4.10132 6.25577 2.54654C6.1723 1.04914 4.88348 0 3.13043 0ZM0.521739 6.25577C0.234783 6.25577 0 6.49056 0 6.77751V21.9079C0 22.1949 0.234783 22.4297 0.521739 22.4297H5.73913C6.02609 22.4297 6.26087 22.1949 6.26087 21.9079V6.77751C6.26087 6.49056 6.02609 6.25577 5.73913 6.25577H0.521739ZM8.34783 6.25577C8.06087 6.25577 7.82609 6.49056 7.82609 6.77751V21.9079C7.82609 22.1949 8.06087 22.4297 8.34783 22.4297H13.0435C13.3315 22.4297 13.5652 22.1959 13.5652 21.9079V14.0819V13.9514V13.821C13.5652 12.5845 14.5151 11.5773 15.7255 11.4834C15.7882 11.4729 15.8504 11.4732 15.913 11.4732C15.9757 11.4732 16.0379 11.4729 16.1005 11.4834C17.311 11.5773 18.2609 12.5845 18.2609 13.821V21.9079C18.2609 22.1959 18.4946 22.4297 18.7826 22.4297H23.4783C23.7652 22.4297 24 22.1949 24 21.9079V13.0384C24 9.66273 22.1891 6.25577 18.1508 6.25577C16.3143 6.25577 14.927 6.96546 14.087 7.55503V6.77751C14.087 6.49056 13.8522 6.25577 13.5652 6.25577H8.34783Z" fill="white"/>
</svg>
